<svg xmlns="http://www.w3.org/2000/svg" viewBox="0 0 720 400" fill="none">
  <defs>
    <linearGradient id="wbg" x1="0" y1="0" x2="720" y2="400">
      <stop offset="0%" stop-color="#ede9fe"/>
      <stop offset="100%" stop-color="#e0e7ff"/>
    </linearGradient>
    <linearGradient id="wcard" x1="0" y1="0" x2="0" y2="1">
      <stop offset="0%" stop-color="#6366f1"/>
      <stop offset="100%" stop-color="#4f46e5"/>
    </linearGradient>
  </defs>
  <rect width="720" height="400" fill="url(#wbg)" rx="20"/>
  <text x="360" y="45" text-anchor="middle" font-family="system-ui,-apple-system,sans-serif" font-size="20" font-weight="700" fill="#4338ca">What is AI? — How It Thinks</text>
  <!-- Left: Traditional Software -->
  <g transform="translate(100,80)">
    <rect width="200" height="260" rx="16" fill="white" stroke="#c7d2fe" stroke-width="2"/>
    <rect width="200" height="44" rx="16" fill="#e0e7ff"/>
    <text x="100" y="28" text-anchor="middle" font-family="system-ui,sans-serif" font-size="13" font-weight="600" fill="#4338ca">Traditional Software</text>
    <!-- Rule boxes -->
    <g transform="translate(20,60)">
      <rect width="160" height="36" rx="8" fill="#f1f5f9" stroke="#cbd5e1"/>
      <text x="80" y="22" text-anchor="middle" font-family="monospace" font-size="11" fill="#475569">IF temp &gt; 30°C</text>
    </g>
    <!-- Down arrow -->
    <g transform="translate(90,100)">
      <line x1="10" y1="2" x2="10" y2="18" stroke="#94a3b8" stroke-width="2.5" stroke-linecap="round"/>
      <polyline points="4,13 10,20 16,13" stroke="#94a3b8" stroke-width="2.5" fill="none" stroke-linecap="round" stroke-linejoin="round"/>
    </g>
    <g transform="translate(20,125)">
      <rect width="160" height="36" rx="8" fill="#f1f5f9" stroke="#cbd5e1"/>
      <text x="80" y="22" text-anchor="middle" font-family="monospace" font-size="11" fill="#475569">THEN "It's hot!"</text>
    </g>
    <!-- Down arrow -->
    <g transform="translate(90,165)">
      <line x1="10" y1="2" x2="10" y2="18" stroke="#94a3b8" stroke-width="2.5" stroke-linecap="round"/>
      <polyline points="4,13 10,20 16,13" stroke="#94a3b8" stroke-width="2.5" fill="none" stroke-linecap="round" stroke-linejoin="round"/>
    </g>
    <g transform="translate(20,190)">
      <rect width="160" height="36" rx="8" fill="#fef3c7" stroke="#fbbf24"/>
      <text x="80" y="22" text-anchor="middle" font-family="system-ui,sans-serif" font-size="12" fill="#92400e">Follows rules exactly</text>
    </g>
  </g>
  <!-- Center: VS -->
  <g transform="translate(330,180)">
    <circle r="30" fill="url(#wcard)"/>
    <text y="6" text-anchor="middle" font-family="system-ui,sans-serif" font-size="16" font-weight="700" fill="white">VS</text>
  </g>
  <!-- Right: AI -->
  <g transform="translate(420,80)">
    <rect width="200" height="260" rx="16" fill="white" stroke="#c7d2fe" stroke-width="2"/>
    <rect width="200" height="44" rx="16" fill="url(#wcard)"/>
    <text x="100" y="28" text-anchor="middle" font-family="system-ui,sans-serif" font-size="13" font-weight="600" fill="white">Artificial Intelligence</text>
    <!-- Data examples: cat silhouettes -->
    <g transform="translate(20,60)">
      <rect width="160" height="36" rx="8" fill="#f0fdf4" stroke="#86efac"/>
      <text x="80" y="22" text-anchor="middle" font-family="system-ui,sans-serif" font-size="11" fill="#166534">cat + cat + cat = "Cat"</text>
    </g>
    <!-- Down arrow -->
    <g transform="translate(90,100)">
      <line x1="10" y1="2" x2="10" y2="18" stroke="#94a3b8" stroke-width="2.5" stroke-linecap="round"/>
      <polyline points="4,13 10,20 16,13" stroke="#94a3b8" stroke-width="2.5" fill="none" stroke-linecap="round" stroke-linejoin="round"/>
    </g>
    <g transform="translate(20,125)">
      <rect width="160" height="36" rx="8" fill="#eff6ff" stroke="#93c5fd"/>
      <!-- Brain icon -->
      <g transform="translate(30,8)">
        <ellipse cx="10" cy="10" rx="8" ry="9" stroke="#1e40af" stroke-width="1.5" fill="none"/>
        <path d="M10,4 Q14,4 14,8 Q18,8 16,12 Q18,16 14,16 Q14,19 10,19 Q6,19 6,16 Q2,16 4,12 Q2,8 6,8 Q6,4 10,4" stroke="#1e40af" stroke-width="1" fill="none"/>
        <line x1="10" y1="4" x2="10" y2="19" stroke="#1e40af" stroke-width="1"/>
      </g>
      <text x="90" y="22" text-anchor="middle" font-family="system-ui,sans-serif" font-size="11" fill="#1e40af">Learns patterns</text>
    </g>
    <!-- Down arrow -->
    <g transform="translate(90,165)">
      <line x1="10" y1="2" x2="10" y2="18" stroke="#94a3b8" stroke-width="2.5" stroke-linecap="round"/>
      <polyline points="4,13 10,20 16,13" stroke="#94a3b8" stroke-width="2.5" fill="none" stroke-linecap="round" stroke-linejoin="round"/>
    </g>
    <g transform="translate(20,190)">
      <rect width="160" height="36" rx="8" fill="#f0fdf4" stroke="#86efac"/>
      <text x="80" y="22" text-anchor="middle" font-family="system-ui,sans-serif" font-size="12" fill="#166534">new pic → "That's a cat!"</text>
    </g>
  </g>
  <text x="360" y="380" text-anchor="middle" font-family="system-ui,sans-serif" font-size="13" fill="#6366f1" opacity="0.7">Rules vs Learning — the core difference</text>
</svg>
